<?xml version="1.0" encoding="utf-8" standalone="no"?>
<!DOCTYPE svg PUBLIC "-//W3C//DTD SVG 1.1//EN"
  "http://www.w3.org/Graphics/SVG/1.1/DTD/svg11.dtd">
<svg xmlns:xlink="http://www.w3.org/1999/xlink" width="288pt" height="230.4pt" viewBox="0 0 288 230.4" xmlns="http://www.w3.org/2000/svg" version="1.1">
 <metadata>
  <rdf:RDF xmlns:dc="http://purl.org/dc/elements/1.1/" xmlns:cc="http://creativecommons.org/ns#" xmlns:rdf="http://www.w3.org/1999/02/22-rdf-syntax-ns#">
   <cc:Work>
    <dc:type rdf:resource="http://purl.org/dc/dcmitype/StillImage"/>
    <dc:date>2026-01-08T16:05:43.276643</dc:date>
    <dc:format>image/svg+xml</dc:format>
    <dc:creator>
     <cc:Agent>
      <dc:title>Matplotlib v3.10.0, https://matplotlib.org/</dc:title>
     </cc:Agent>
    </dc:creator>
   </cc:Work>
  </rdf:RDF>
 </metadata>
 <defs>
  <style type="text/css">*{stroke-linejoin: round; stroke-linecap: butt}</style>
 </defs>
 <g id="figure_1">
  <g id="patch_1">
   <path d="M 0 230.4 
L 288 230.4 
L 288 0 
L 0 0 
z
" style="fill: #ffffff"/>
  </g>
  <g id="patch_2">
   <path d="M 58.896 205.056 
L 236.304 205.056 
L 236.304 27.648 
L 58.896 27.648 
z
" style="fill: #ffffff"/>
  </g>
  <g id="pane3d_1">
   <g id="patch_3">
    <path d="M 149.997405 110.953224 
L 228.959694 150.220341 
L 232.565277 76.032878 
L 149.997405 40.245153 
" style="fill: #f2f2f2; stroke: #f2f2f2; stroke-linejoin: miter"/>
   </g>
  </g>
  <g id="pane3d_2">
   <g id="patch_4">
    <path d="M 149.997405 110.953224 
L 71.035117 150.220341 
L 67.429533 76.032878 
L 149.997405 40.245153 
" style="fill: #fafafa; stroke: #fafafa; stroke-linejoin: miter"/>
   </g>
  </g>
  <g id="pane3d_3">
   <g id="patch_5">
    <path d="M 149.997405 110.953224 
L 71.035117 150.220341 
L 149.997405 195.517732 
L 228.959694 150.220341 
" style="fill: #ebebeb; stroke: #ebebeb; stroke-linejoin: miter"/>
   </g>
  </g>
  <g id="axis3d_1">
   <g id="line2d_1">
    <path d="M 228.959694 150.220341 
L 149.997405 195.517732 
" style="fill: none; stroke: #f2f2f2; stroke-width: 0.8; stroke-linecap: square"/>
   </g>
  </g>
  <g id="axis3d_2">
   <g id="line2d_2">
    <path d="M 71.035117 150.220341 
L 149.997405 195.517732 
" style="fill: none; stroke: #fafafa; stroke-width: 0.8; stroke-linecap: square"/>
   </g>
  </g>
  <g id="axis3d_3">
   <g id="line2d_3">
    <path d="M 71.035117 150.220341 
L 67.429533 76.032878 
" style="fill: none; stroke: #ebebeb; stroke-width: 0.8; stroke-linecap: square"/>
   </g>
  </g>
  <g id="axes_1">
   <g id="Path3DCollection_1">
    <defs>
     <path id="mf4928c4de4" d="M -0 10 
L 10 0 
L 0 -10 
L -10 -0 
z
" style="stroke: #000000"/>
    </defs>
    <g clip-path="url(#p2f64f7d96b)">
     <use xlink:href="#mf4928c4de4" x="167.757656" y="111.505057" style="fill: #4a94f2; stroke: #000000"/>
    </g>
   </g>
   <g id="text_1">
    <text style="font-size: 12px; font-family: 'DejaVu Sans', 'Bitstream Vera Sans', 'Computer Modern Sans Serif', 'Lucida Grande', 'Verdana', 'Geneva', 'Lucid', 'Arial', 'Helvetica', 'Avant Garde', sans-serif; text-anchor: middle" x="147.6" y="21.648" transform="rotate(-0 147.6 21.648)">100% random</text>
   </g>
   <g id="Path3DCollection_2">
    <defs>
     <path id="m10ab43ba49" d="M -7.071068 7.071068 
L 7.071068 7.071068 
L 7.071068 -7.071068 
L -7.071068 -7.071068 
z
" style="stroke: #000000"/>
    </defs>
    <g clip-path="url(#p2f64f7d96b)">
     <use xlink:href="#m10ab43ba49" x="89.400246" y="97.114077" style="fill: #4a94f2; stroke: #000000"/>
    </g>
   </g>
   <g id="Path3DCollection_3">
    <defs>
     <path id="m084e508786" d="M -0 10 
L 10 0 
L 0 -10 
L -10 -0 
z
" style="stroke: #000000"/>
    </defs>
    <g clip-path="url(#p2f64f7d96b)">
     <use xlink:href="#m084e508786" x="192.421174" y="85.814131" style="fill: #00a88f; stroke: #000000"/>
    </g>
   </g>
   <g id="Poly3DCollection_1">
    <path d="M 89.400246 97.114077 
L 167.757656 111.505057 
L 192.421174 85.814131 
z
" clip-path="url(#p2f64f7d96b)" style="fill: #c0c0c0; fill-opacity: 0.5"/>
    <path d="M 89.400246 97.114077 
L 167.757656 111.505057 
L 150.181409 162.945815 
z
" clip-path="url(#p2f64f7d96b)" style="fill: #c0c0c0; fill-opacity: 0.5"/>
    <path d="M 167.757656 111.505057 
L 150.181409 162.945815 
L 192.421174 85.814131 
z
" clip-path="url(#p2f64f7d96b)" style="fill: #c0c0c0; fill-opacity: 0.5"/>
    <path d="M 89.400246 97.114077 
L 150.181409 162.945815 
L 192.421174 85.814131 
z
" clip-path="url(#p2f64f7d96b)" style="fill: #c0c0c0; fill-opacity: 0.5"/>
   </g>
   <g id="Line3DCollection_1">
    <path d="M 89.400246 97.114077 
L 167.757656 111.505057 
L 150.181409 162.945815 
" clip-path="url(#p2f64f7d96b)" style="fill: none; stroke-dasharray: 0.5,0.825; stroke-dashoffset: 0; stroke: #000000; stroke-width: 0.5"/>
    <path d="M 89.400246 97.114077 
L 167.757656 111.505057 
L 192.421174 85.814131 
" clip-path="url(#p2f64f7d96b)" style="fill: none; stroke-dasharray: 0.5,0.825; stroke-dashoffset: 0; stroke: #000000; stroke-width: 0.5"/>
    <path d="M 89.400246 97.114077 
L 150.181409 162.945815 
L 192.421174 85.814131 
" clip-path="url(#p2f64f7d96b)" style="fill: none; stroke-dasharray: 0.5,0.825; stroke-dashoffset: 0; stroke: #000000; stroke-width: 0.5"/>
    <path d="M 167.757656 111.505057 
L 150.181409 162.945815 
L 192.421174 85.814131 
" clip-path="url(#p2f64f7d96b)" style="fill: none; stroke-dasharray: 0.5,0.825; stroke-dashoffset: 0; stroke: #000000; stroke-width: 0.5"/>
   </g>
   <g id="Path3DCollection_4">
    <defs>
     <path id="md43cb1ca78" d="M -7.071068 7.071068 
L 7.071068 7.071068 
L 7.071068 -7.071068 
L -7.071068 -7.071068 
z
" style="stroke: #000000"/>
    </defs>
    <g clip-path="url(#p2f64f7d96b)">
     <use xlink:href="#md43cb1ca78" x="150.181409" y="162.945815" style="fill: #00a88f; stroke: #000000"/>
    </g>
   </g>
  </g>
 </g>
 <defs>
  <clipPath id="p2f64f7d96b">
   <rect x="58.896" y="27.648" width="177.408" height="177.408"/>
  </clipPath>
 </defs>
</svg>
