<?xml version="1.0" encoding="utf-8" standalone="no"?>
<!DOCTYPE svg PUBLIC "-//W3C//DTD SVG 1.1//EN"
  "http://www.w3.org/Graphics/SVG/1.1/DTD/svg11.dtd">
<svg xmlns:xlink="http://www.w3.org/1999/xlink" width="288pt" height="230.4pt" viewBox="0 0 288 230.4" xmlns="http://www.w3.org/2000/svg" version="1.1">
 <metadata>
  <rdf:RDF xmlns:dc="http://purl.org/dc/elements/1.1/" xmlns:cc="http://creativecommons.org/ns#" xmlns:rdf="http://www.w3.org/1999/02/22-rdf-syntax-ns#">
   <cc:Work>
    <dc:type rdf:resource="http://purl.org/dc/dcmitype/StillImage"/>
    <dc:date>2026-01-08T16:05:43.325808</dc:date>
    <dc:format>image/svg+xml</dc:format>
    <dc:creator>
     <cc:Agent>
      <dc:title>Matplotlib v3.10.0, https://matplotlib.org/</dc:title>
     </cc:Agent>
    </dc:creator>
   </cc:Work>
  </rdf:RDF>
 </metadata>
 <defs>
  <style type="text/css">*{stroke-linejoin: round; stroke-linecap: butt}</style>
 </defs>
 <g id="figure_1">
  <g id="patch_1">
   <path d="M 0 230.4 
L 288 230.4 
L 288 0 
L 0 0 
z
" style="fill: #ffffff"/>
  </g>
  <g id="patch_2">
   <path d="M 58.896 205.056 
L 236.304 205.056 
L 236.304 27.648 
L 58.896 27.648 
z
" style="fill: #ffffff"/>
  </g>
  <g id="pane3d_1">
   <g id="patch_3">
    <path d="M 149.997405 110.953224 
L 228.959694 150.220341 
L 232.565277 76.032878 
L 149.997405 40.245153 
" style="fill: #f2f2f2; stroke: #f2f2f2; stroke-linejoin: miter"/>
   </g>
  </g>
  <g id="pane3d_2">
   <g id="patch_4">
    <path d="M 149.997405 110.953224 
L 71.035117 150.220341 
L 67.429533 76.032878 
L 149.997405 40.245153 
" style="fill: #fafafa; stroke: #fafafa; stroke-linejoin: miter"/>
   </g>
  </g>
  <g id="pane3d_3">
   <g id="patch_5">
    <path d="M 149.997405 110.953224 
L 71.035117 150.220341 
L 149.997405 195.517732 
L 228.959694 150.220341 
" style="fill: #ebebeb; stroke: #ebebeb; stroke-linejoin: miter"/>
   </g>
  </g>
  <g id="axis3d_1">
   <g id="line2d_1">
    <path d="M 228.959694 150.220341 
L 149.997405 195.517732 
" style="fill: none; stroke: #f2f2f2; stroke-width: 0.8; stroke-linecap: square"/>
   </g>
  </g>
  <g id="axis3d_2">
   <g id="line2d_2">
    <path d="M 71.035117 150.220341 
L 149.997405 195.517732 
" style="fill: none; stroke: #fafafa; stroke-width: 0.8; stroke-linecap: square"/>
   </g>
  </g>
  <g id="axis3d_3">
   <g id="line2d_3">
    <path d="M 71.035117 150.220341 
L 67.429533 76.032878 
" style="fill: none; stroke: #ebebeb; stroke-width: 0.8; stroke-linecap: square"/>
   </g>
  </g>
  <g id="axes_1">
   <g id="Path3DCollection_1">
    <defs>
     <path id="m4459314aff" d="M -7.071068 7.071068 
L 7.071068 7.071068 
L 7.071068 -7.071068 
L -7.071068 -7.071068 
z
" style="stroke: #000000"/>
    </defs>
    <g clip-path="url(#p8d403bd64f)">
     <use xlink:href="#m4459314aff" x="146.967934" y="107.727461" style="fill: #4a94f2; stroke: #000000"/>
    </g>
   </g>
   <g id="text_1">
    <text style="font-size: 12px; font-family: 'DejaVu Sans', 'Bitstream Vera Sans', 'Computer Modern Sans Serif', 'Lucida Grande', 'Verdana', 'Geneva', 'Lucid', 'Arial', 'Helvetica', 'Avant Garde', sans-serif; text-anchor: middle" x="147.6" y="21.648" transform="rotate(-0 147.6 21.648)">66% random</text>
   </g>
   <g id="Path3DCollection_2">
    <defs>
     <path id="m803b257904" d="M -0 10 
L 10 0 
L 0 -10 
L -10 -0 
z
" style="stroke: #000000"/>
    </defs>
    <g clip-path="url(#p8d403bd64f)">
     <use xlink:href="#m803b257904" x="188.423686" y="83.176995" style="fill: #00a88f; stroke: #000000"/>
    </g>
   </g>
   <g id="Path3DCollection_3">
    <defs>
     <path id="m7f5f51a063" d="M -7.071068 7.071068 
L 7.071068 7.071068 
L 7.071068 -7.071068 
L -7.071068 -7.071068 
z
" style="stroke: #000000"/>
    </defs>
    <g clip-path="url(#p8d403bd64f)">
     <use xlink:href="#m7f5f51a063" x="94.406641" y="111.405712" style="fill: #00a88f; stroke: #000000"/>
    </g>
   </g>
   <g id="Poly3DCollection_1">
    <path d="M 146.967934 107.727461 
L 94.406641 111.405712 
L 188.423686 83.176995 
z
" clip-path="url(#p8d403bd64f)" style="fill: #c0c0c0; fill-opacity: 0.5"/>
    <path d="M 146.967934 107.727461 
L 169.699084 154.856212 
L 188.423686 83.176995 
z
" clip-path="url(#p8d403bd64f)" style="fill: #c0c0c0; fill-opacity: 0.5"/>
    <path d="M 146.967934 107.727461 
L 169.699084 154.856212 
L 94.406641 111.405712 
z
" clip-path="url(#p8d403bd64f)" style="fill: #c0c0c0; fill-opacity: 0.5"/>
    <path d="M 169.699084 154.856212 
L 94.406641 111.405712 
L 188.423686 83.176995 
z
" clip-path="url(#p8d403bd64f)" style="fill: #c0c0c0; fill-opacity: 0.5"/>
   </g>
   <g id="Line3DCollection_1">
    <path d="M 146.967934 107.727461 
L 169.699084 154.856212 
L 94.406641 111.405712 
" clip-path="url(#p8d403bd64f)" style="fill: none; stroke-dasharray: 0.5,0.825; stroke-dashoffset: 0; stroke: #000000; stroke-width: 0.5"/>
    <path d="M 146.967934 107.727461 
L 169.699084 154.856212 
L 188.423686 83.176995 
" clip-path="url(#p8d403bd64f)" style="fill: none; stroke-dasharray: 0.5,0.825; stroke-dashoffset: 0; stroke: #000000; stroke-width: 0.5"/>
    <path d="M 146.967934 107.727461 
L 94.406641 111.405712 
L 188.423686 83.176995 
" clip-path="url(#p8d403bd64f)" style="fill: none; stroke-dasharray: 0.5,0.825; stroke-dashoffset: 0; stroke: #000000; stroke-width: 0.5"/>
    <path d="M 169.699084 154.856212 
L 94.406641 111.405712 
L 188.423686 83.176995 
" clip-path="url(#p8d403bd64f)" style="fill: none; stroke-dasharray: 0.5,0.825; stroke-dashoffset: 0; stroke: #000000; stroke-width: 0.5"/>
   </g>
   <g id="Path3DCollection_4">
    <defs>
     <path id="mcb68d6c569" d="M -0 10 
L 10 0 
L 0 -10 
L -10 -0 
z
" style="stroke: #000000"/>
    </defs>
    <g clip-path="url(#p8d403bd64f)">
     <use xlink:href="#mcb68d6c569" x="169.699084" y="154.856212" style="fill: #4a94f2; stroke: #000000"/>
    </g>
   </g>
  </g>
 </g>
 <defs>
  <clipPath id="p8d403bd64f">
   <rect x="58.896" y="27.648" width="177.408" height="177.408"/>
  </clipPath>
 </defs>
</svg>
