<?xml version="1.0" encoding="utf-8" standalone="no"?>
<!DOCTYPE svg PUBLIC "-//W3C//DTD SVG 1.1//EN"
  "http://www.w3.org/Graphics/SVG/1.1/DTD/svg11.dtd">
<svg xmlns:xlink="http://www.w3.org/1999/xlink" width="576pt" height="115.2pt" viewBox="0 0 576 115.2" xmlns="http://www.w3.org/2000/svg" version="1.1">
 <metadata>
  <rdf:RDF xmlns:dc="http://purl.org/dc/elements/1.1/" xmlns:cc="http://creativecommons.org/ns#" xmlns:rdf="http://www.w3.org/1999/02/22-rdf-syntax-ns#">
   <cc:Work>
    <dc:type rdf:resource="http://purl.org/dc/dcmitype/StillImage"/>
    <dc:date>2026-01-08T16:06:44.735063</dc:date>
    <dc:format>image/svg+xml</dc:format>
    <dc:creator>
     <cc:Agent>
      <dc:title>Matplotlib v3.10.0, https://matplotlib.org/</dc:title>
     </cc:Agent>
    </dc:creator>
   </cc:Work>
  </rdf:RDF>
 </metadata>
 <defs>
  <style type="text/css">*{stroke-linejoin: round; stroke-linecap: butt}</style>
 </defs>
 <g id="figure_1">
  <g id="patch_1">
   <path d="M 0 115.2 
L 576 115.2 
L 576 0 
L 0 0 
z
" style="fill: #ffffff"/>
  </g>
  <g id="axes_1">
   <g id="patch_2">
    <path d="M 47.72 73.24 
L 141.3 73.24 
L 141.3 26.88 
L 47.72 26.88 
z
" style="fill: #ffffff"/>
   </g>
   <g id="patch_3">
    <path d="M 86.252941 125.395 
L 113.776471 125.395 
L 113.776471 9.495 
L 86.252941 9.495 
z
" clip-path="url(#p25c861351c)" style="fill: #ffdab9"/>
   </g>
   <g id="matplotlib.axis_1">
    <g id="xtick_1">
     <g id="line2d_1">
      <defs>
       <path id="m242f865131" d="M 0 0 
L 0 3.5 
" style="stroke: #000000; stroke-width: 0.8"/>
      </defs>
      <g>
       <use xlink:href="#m242f865131" x="58.729412" y="73.24" style="stroke: #000000; stroke-width: 0.8"/>
      </g>
     </g>
     <g id="text_1">
      <text style="font-size: 10px; font-family: 'DejaVu Sans', 'Bitstream Vera Sans', 'Computer Modern Sans Serif', 'Lucida Grande', 'Verdana', 'Geneva', 'Lucid', 'Arial', 'Helvetica', 'Avant Garde', sans-serif; text-anchor: middle" x="58.729412" y="87.838437" transform="rotate(-0 58.729412 87.838437)">0.0</text>
     </g>
    </g>
    <g id="xtick_2">
     <g id="line2d_2">
      <g>
       <use xlink:href="#m242f865131" x="86.252941" y="73.24" style="stroke: #000000; stroke-width: 0.8"/>
      </g>
     </g>
     <g id="text_2">
      <text style="font-size: 10px; font-family: 'DejaVu Sans', 'Bitstream Vera Sans', 'Computer Modern Sans Serif', 'Lucida Grande', 'Verdana', 'Geneva', 'Lucid', 'Arial', 'Helvetica', 'Avant Garde', sans-serif; text-anchor: middle" x="86.252941" y="87.838437" transform="rotate(-0 86.252941 87.838437)">0.5</text>
     </g>
    </g>
    <g id="xtick_3">
     <g id="line2d_3">
      <g>
       <use xlink:href="#m242f865131" x="113.776471" y="73.24" style="stroke: #000000; stroke-width: 0.8"/>
      </g>
     </g>
     <g id="text_3">
      <text style="font-size: 10px; font-family: 'DejaVu Sans', 'Bitstream Vera Sans', 'Computer Modern Sans Serif', 'Lucida Grande', 'Verdana', 'Geneva', 'Lucid', 'Arial', 'Helvetica', 'Avant Garde', sans-serif; text-anchor: middle" x="113.776471" y="87.838437" transform="rotate(-0 113.776471 87.838437)">1.0</text>
     </g>
    </g>
    <g id="text_4">
     <text style="font-size: 10px; font-family: 'DejaVu Sans', 'Bitstream Vera Sans', 'Computer Modern Sans Serif', 'Lucida Grande', 'Verdana', 'Geneva', 'Lucid', 'Arial', 'Helvetica', 'Avant Garde', sans-serif; text-anchor: middle" x="94.51" y="101.516563" transform="rotate(-0 94.51 101.516563)">time (s)</text>
    </g>
   </g>
   <g id="matplotlib.axis_2">
    <g id="ytick_1">
     <g id="line2d_4">
      <defs>
       <path id="md433f8797f" d="M 0 0 
L -3.5 0 
" style="stroke: #000000; stroke-width: 0.8"/>
      </defs>
      <g>
       <use xlink:href="#md433f8797f" x="47.72" y="55.855" style="stroke: #000000; stroke-width: 0.8"/>
      </g>
     </g>
     <g id="text_5">
      <text style="font-size: 10px; font-family: 'DejaVu Sans', 'Bitstream Vera Sans', 'Computer Modern Sans Serif', 'Lucida Grande', 'Verdana', 'Geneva', 'Lucid', 'Arial', 'Helvetica', 'Avant Garde', sans-serif; text-anchor: end" x="40.72" y="59.654219" transform="rotate(-0 40.72 59.654219)">0.6</text>
     </g>
    </g>
    <g id="ytick_2">
     <g id="line2d_5">
      <g>
       <use xlink:href="#md433f8797f" x="47.72" y="32.675" style="stroke: #000000; stroke-width: 0.8"/>
      </g>
     </g>
     <g id="text_6">
      <text style="font-size: 10px; font-family: 'DejaVu Sans', 'Bitstream Vera Sans', 'Computer Modern Sans Serif', 'Lucida Grande', 'Verdana', 'Geneva', 'Lucid', 'Arial', 'Helvetica', 'Avant Garde', sans-serif; text-anchor: end" x="40.72" y="36.474219" transform="rotate(-0 40.72 36.474219)">0.8</text>
     </g>
    </g>
    <g id="text_7">
     <text style="font-size: 10px; font-family: 'DejaVu Sans', 'Bitstream Vera Sans', 'Computer Modern Sans Serif', 'Lucida Grande', 'Verdana', 'Geneva', 'Lucid', 'Arial', 'Helvetica', 'Avant Garde', sans-serif; text-anchor: middle" x="18.737187" y="50.06" transform="rotate(-90 18.737187 50.06)">accuracy</text>
    </g>
   </g>
   <g id="line2d_6">
    <path d="M 47.72 68.400978 
L 48.273728 67.612543 
L 48.827456 68.33199 
L 49.381183 67.346446 
L 49.934911 67.987049 
L 50.488639 67.445 
L 51.042367 68.065893 
L 51.596095 66.676276 
L 52.149822 66.370757 
L 52.70355 65.690731 
L 53.257278 66.686131 
L 53.811006 65.592177 
L 54.364734 65.838563 
L 54.918462 66.390468 
L 56.025917 66.735408 
L 56.579645 66.508733 
L 57.133373 67.326735 
L 57.687101 65.335935 
L 58.240828 66.242636 
L 58.794556 65.907551 
L 59.348284 66.242636 
L 59.902012 66.833963 
L 60.45574 67.011361 
L 61.009467 68.952883 
L 61.563195 68.233435 
L 62.670651 69.751173 
L 63.224379 69.741318 
L 63.778107 69.573776 
L 64.331834 70.027126 
L 64.885562 69.337245 
L 65.43929 68.89375 
L 66.546746 69.297823 
L 67.100473 69.475221 
L 67.654201 68.765629 
L 68.207929 69.692041 
L 68.761657 68.89375 
L 69.315385 68.371412 
L 69.869112 68.982449 
L 70.42284 68.164447 
L 70.976568 67.937772 
L 71.530296 67.543554 
L 72.084024 67.632253 
L 72.637751 66.893095 
L 73.191479 67.494277 
L 73.745207 66.055383 
L 74.298935 65.473912 
L 74.852663 66.548155 
L 76.513846 64.89244 
L 77.067574 66.479167 
L 77.621302 66.084949 
L 78.17503 66.252491 
L 78.728757 66.656565 
L 79.282485 66.755119 
L 79.836213 66.429889 
L 80.389941 67.316879 
L 80.943669 68.854328 
L 81.497396 67.218325 
L 82.051124 68.292568 
L 82.604852 68.420689 
L 83.15858 69.209124 
L 83.712308 69.544209 
L 84.266036 67.977194 
L 84.819763 68.460111 
L 85.373491 67.681531 
L 85.927219 68.529099 
L 86.480947 67.66182 
L 87.034675 68.78534 
L 87.588402 68.282713 
L 88.695858 68.292568 
L 89.249586 69.051437 
L 90.910769 67.159192 
L 92.018225 66.735408 
L 92.571953 65.276803 
L 93.12568 64.537645 
L 93.679408 64.281403 
L 94.233136 65.020561 
L 94.786864 62.941063 
L 95.89432 61.630289 
L 96.448047 61.728844 
L 97.001775 60.97983 
L 97.555503 62.044218 
L 98.109231 59.63949 
L 98.662959 59.363537 
L 99.216686 57.786667 
L 99.770414 58.387849 
L 100.324142 57.707823 
L 100.87787 57.205196 
L 101.431598 56.081675 
L 101.985325 56.673002 
L 103.092781 56.584303 
L 103.646509 57.678257 
L 104.200237 56.318206 
L 105.307692 58.210451 
L 105.86142 58.151318 
L 106.415148 58.328716 
L 106.968876 59.826743 
L 107.522604 59.659201 
L 108.076331 59.274838 
L 108.630059 58.732789 
L 109.183787 59.698622 
L 109.737515 59.038308 
L 110.291243 59.925298 
L 110.84497 58.131607 
L 111.398698 59.20585 
L 112.506154 58.604668 
L 113.059882 59.284694 
L 113.613609 59.127007 
L 114.721065 60.822143 
L 115.274793 60.053418 
L 115.828521 60.565901 
L 116.935976 60.733444 
L 117.489704 59.866165 
L 118.043432 60.605323 
L 118.59716 61.590867 
L 119.150888 62.822798 
L 119.704615 61.630289 
L 120.258343 61.75841 
L 121.365799 62.359592 
L 121.919527 62.054073 
L 123.026982 62.625689 
L 123.58071 61.512024 
L 124.134438 61.265638 
L 124.688166 61.186794 
L 125.795621 62.468002 
L 126.349349 61.127662 
L 126.903077 62.339881 
L 127.456805 62.527134 
L 128.010533 62.192049 
L 128.56426 62.763665 
L 129.671716 63.09875 
L 130.225444 62.980485 
L 130.779172 63.197304 
L 131.332899 63.118461 
L 131.886627 62.6454 
L 132.440355 62.556701 
L 133.547811 61.295204 
L 134.101538 61.19665 
L 134.655266 62.270893 
L 135.208994 61.314915 
L 135.762722 62.132917 
L 136.31645 61.581012 
L 136.870178 61.571156 
L 137.423905 61.99494 
L 137.977633 61.610578 
L 138.531361 61.068529 
L 139.085089 60.30966 
L 139.638817 60.52648 
L 140.192544 60.09284 
L 140.746272 60.151973 
L 141.3 60.52648 
L 141.3 60.52648 
" clip-path="url(#p25c861351c)" style="fill: none; stroke: #808080; stroke-width: 1.5; stroke-linecap: square"/>
   </g>
   <g id="line2d_7">
    <path d="M 47.72 67.829362 
L 48.273728 68.233435 
L 48.827456 67.642109 
L 49.381183 67.356301 
L 49.934911 66.390468 
L 50.488639 66.626998 
L 51.042367 65.966684 
L 51.596095 66.656565 
L 52.70355 67.218325 
L 53.811006 66.21307 
L 54.364734 67.178903 
L 54.918462 65.956828 
L 55.472189 66.617143 
L 56.025917 66.705842 
L 56.579645 65.533044 
L 57.133373 66.498878 
L 57.687101 67.198614 
L 58.240828 66.764974 
L 58.794556 66.77483 
L 59.348284 66.331335 
L 59.902012 66.282058 
L 61.009467 68.026471 
L 61.563195 67.681531 
L 62.670651 67.316879 
L 63.224379 66.075094 
L 63.778107 66.331335 
L 64.331834 66.932517 
L 64.885562 66.420034 
L 65.993018 66.873384 
L 66.546746 66.065238 
L 67.100473 67.356301 
L 67.654201 66.203214 
L 68.207929 66.301769 
L 68.761657 67.287313 
L 69.315385 67.632253 
L 69.869112 66.88324 
L 70.42284 67.435145 
L 70.976568 67.080349 
L 71.530296 66.99165 
L 72.084024 66.311624 
L 73.191479 65.897696 
L 73.745207 66.075094 
L 74.298935 65.158537 
L 75.406391 66.439745 
L 75.960118 67.454855 
L 76.513846 67.987049 
L 77.621302 67.651964 
L 78.17503 67.701241 
L 78.728757 68.075748 
L 79.282485 68.194014 
L 80.389941 69.169702 
L 80.943669 69.386522 
L 81.497396 69.731463 
L 82.051124 70.214379 
L 82.604852 70.381922 
L 83.15858 71.22949 
L 83.712308 70.283367 
L 84.266036 69.987704 
L 84.819763 70.155247 
L 85.373491 69.67233 
L 85.927219 67.858929 
L 86.480947 68.982449 
L 87.034675 67.050782 
L 87.588402 67.563265 
L 88.695858 66.311624 
L 89.249586 64.813597 
L 89.803314 65.858274 
L 90.357041 66.410179 
L 90.910769 66.626998 
L 91.464497 67.632253 
L 92.018225 66.21307 
L 92.571953 66.636854 
L 93.12568 66.498878 
L 93.679408 66.025816 
L 94.233136 66.843818 
L 94.786864 65.917406 
L 95.340592 65.365502 
L 95.89432 65.296514 
L 96.448047 64.20256 
L 97.001775 64.527789 
L 97.555503 62.182194 
L 98.109231 62.911497 
L 98.662959 61.847109 
L 99.216686 59.895731 
L 99.770414 58.437126 
L 100.324142 58.033053 
L 100.87787 57.333316 
L 101.431598 55.815578 
L 101.985325 54.770901 
L 102.539053 54.682202 
L 103.092781 53.460128 
L 103.646509 53.400995 
L 104.200237 52.730825 
L 104.753964 52.602704 
L 105.307692 52.198631 
L 105.86142 51.981811 
L 106.415148 52.385884 
L 106.968876 51.607304 
L 107.522604 51.715714 
L 108.076331 52.977211 
L 109.183787 53.992321 
L 109.737515 55.204541 
L 110.291243 54.761046 
L 110.84497 57.047509 
L 111.398698 57.313605 
L 111.952426 57.323461 
L 112.506154 57.697968 
L 113.059882 58.387849 
L 113.613609 58.377993 
L 114.167337 59.471947 
L 114.721065 59.008741 
L 115.274793 58.013342 
L 115.828521 59.521224 
L 116.382249 60.644745 
L 117.489704 60.625034 
L 118.043432 61.630289 
L 118.59716 62.921352 
L 119.150888 63.049473 
L 119.704615 61.935808 
L 120.812071 62.349736 
L 121.365799 63.236726 
L 121.919527 64.695332 
L 122.473254 63.177594 
L 123.58071 65.365502 
L 124.134438 65.050128 
L 124.688166 65.582321 
L 125.241893 65.257092 
L 125.795621 66.084949 
L 126.349349 64.695332 
L 126.903077 66.932517 
L 127.456805 65.316224 
L 128.010533 66.025816 
L 128.56426 64.793886 
L 129.117988 64.389813 
L 129.671716 64.922007 
L 130.225444 63.483112 
L 131.332899 62.280748 
L 131.886627 62.743954 
L 132.440355 62.073784 
L 132.994083 63.09875 
L 133.547811 62.605978 
L 134.101538 63.246582 
L 134.655266 63.157883 
L 135.208994 63.217015 
L 135.762722 63.404269 
L 136.31645 63.039617 
L 136.870178 64.064583 
L 137.423905 63.305714 
L 137.977633 63.76892 
L 138.531361 63.039617 
L 139.085089 63.571811 
L 139.638817 63.936463 
L 140.746272 63.5521 
L 141.3 64.251837 
L 141.3 64.251837 
" clip-path="url(#p25c861351c)" style="fill: none; stroke: #000000; stroke-width: 1.5; stroke-linecap: square"/>
   </g>
   <g id="line2d_8">
    <path d="M 58.729412 73.24 
L 58.729412 26.88 
" clip-path="url(#p25c861351c)" style="fill: none; stroke-dasharray: 2.96,1.28; stroke-dashoffset: 0; stroke: #000000; stroke-width: 0.8"/>
   </g>
   <g id="line2d_9">
    <path d="M 86.252941 73.24 
L 86.252941 26.88 
" clip-path="url(#p25c861351c)" style="fill: none; stroke-dasharray: 2.96,1.28; stroke-dashoffset: 0; stroke: #000000; stroke-width: 0.8"/>
   </g>
   <g id="line2d_10">
    <path d="M 113.776471 73.24 
L 113.776471 26.88 
" clip-path="url(#p25c861351c)" style="fill: none; stroke-dasharray: 2.96,1.28; stroke-dashoffset: 0; stroke: #000000; stroke-width: 0.8"/>
   </g>
   <g id="line2d_11">
    <path d="M 47.72 67.445 
L 141.3 67.445 
" clip-path="url(#p25c861351c)" style="fill: none; stroke-dasharray: 2.96,1.28; stroke-dashoffset: 0; stroke: #000000; stroke-width: 0.8"/>
   </g>
   <g id="patch_4">
    <path d="M 47.72 73.24 
L 47.72 26.88 
" style="fill: none; stroke: #000000; stroke-width: 0.8; stroke-linejoin: miter; stroke-linecap: square"/>
   </g>
   <g id="patch_5">
    <path d="M 47.72 73.24 
L 141.3 73.24 
" style="fill: none; stroke: #000000; stroke-width: 0.8; stroke-linejoin: miter; stroke-linecap: square"/>
   </g>
   <g id="text_8">
    <text style="font-size: 10px; font-family: 'DejaVu Sans', 'Bitstream Vera Sans', 'Computer Modern Sans Serif', 'Lucida Grande', 'Verdana', 'Geneva', 'Lucid', 'Arial', 'Helvetica', 'Avant Garde', sans-serif; text-anchor: middle" x="100.014706" y="34.275375" transform="rotate(-0 100.014706 34.275375)">ns</text>
   </g>
   <g id="text_9">
    <text style="font-size: 12px; font-family: 'DejaVu Sans', 'Bitstream Vera Sans', 'Computer Modern Sans Serif', 'Lucida Grande', 'Verdana', 'Geneva', 'Lucid', 'Arial', 'Helvetica', 'Avant Garde', sans-serif; text-anchor: middle" x="94.51" y="20.88" transform="rotate(-0 94.51 20.88)">shape decoding</text>
   </g>
  </g>
  <g id="axes_2">
   <g id="patch_6">
    <path d="M 189.02 73.24 
L 282.6 73.24 
L 282.6 26.88 
L 189.02 26.88 
z
" style="fill: #ffffff"/>
   </g>
   <g id="patch_7">
    <path d="M 227.552941 125.395 
L 255.076471 125.395 
L 255.076471 9.495 
L 227.552941 9.495 
z
" clip-path="url(#peba3658aa1)" style="fill: #ffdab9"/>
   </g>
   <g id="matplotlib.axis_3">
    <g id="xtick_4">
     <g id="line2d_12">
      <g>
       <use xlink:href="#m242f865131" x="200.029412" y="73.24" style="stroke: #000000; stroke-width: 0.8"/>
      </g>
     </g>
     <g id="text_10">
      <text style="font-size: 10px; font-family: 'DejaVu Sans', 'Bitstream Vera Sans', 'Computer Modern Sans Serif', 'Lucida Grande', 'Verdana', 'Geneva', 'Lucid', 'Arial', 'Helvetica', 'Avant Garde', sans-serif; text-anchor: middle" x="200.029412" y="87.838437" transform="rotate(-0 200.029412 87.838437)">0.0</text>
     </g>
    </g>
    <g id="xtick_5">
     <g id="line2d_13">
      <g>
       <use xlink:href="#m242f865131" x="227.552941" y="73.24" style="stroke: #000000; stroke-width: 0.8"/>
      </g>
     </g>
     <g id="text_11">
      <text style="font-size: 10px; font-family: 'DejaVu Sans', 'Bitstream Vera Sans', 'Computer Modern Sans Serif', 'Lucida Grande', 'Verdana', 'Geneva', 'Lucid', 'Arial', 'Helvetica', 'Avant Garde', sans-serif; text-anchor: middle" x="227.552941" y="87.838437" transform="rotate(-0 227.552941 87.838437)">0.5</text>
     </g>
    </g>
    <g id="xtick_6">
     <g id="line2d_14">
      <g>
       <use xlink:href="#m242f865131" x="255.076471" y="73.24" style="stroke: #000000; stroke-width: 0.8"/>
      </g>
     </g>
     <g id="text_12">
      <text style="font-size: 10px; font-family: 'DejaVu Sans', 'Bitstream Vera Sans', 'Computer Modern Sans Serif', 'Lucida Grande', 'Verdana', 'Geneva', 'Lucid', 'Arial', 'Helvetica', 'Avant Garde', sans-serif; text-anchor: middle" x="255.076471" y="87.838437" transform="rotate(-0 255.076471 87.838437)">1.0</text>
     </g>
    </g>
    <g id="text_13">
     <text style="font-size: 10px; font-family: 'DejaVu Sans', 'Bitstream Vera Sans', 'Computer Modern Sans Serif', 'Lucida Grande', 'Verdana', 'Geneva', 'Lucid', 'Arial', 'Helvetica', 'Avant Garde', sans-serif; text-anchor: middle" x="235.81" y="101.516563" transform="rotate(-0 235.81 101.516563)">time (s)</text>
    </g>
   </g>
   <g id="matplotlib.axis_4">
    <g id="ytick_3">
     <g id="line2d_15">
      <g>
       <use xlink:href="#md433f8797f" x="189.02" y="55.855" style="stroke: #000000; stroke-width: 0.8"/>
      </g>
     </g>
     <g id="text_14">
      <text style="font-size: 10px; font-family: 'DejaVu Sans', 'Bitstream Vera Sans', 'Computer Modern Sans Serif', 'Lucida Grande', 'Verdana', 'Geneva', 'Lucid', 'Arial', 'Helvetica', 'Avant Garde', sans-serif; text-anchor: end" x="182.02" y="59.654219" transform="rotate(-0 182.02 59.654219)">0.6</text>
     </g>
    </g>
    <g id="ytick_4">
     <g id="line2d_16">
      <g>
       <use xlink:href="#md433f8797f" x="189.02" y="32.675" style="stroke: #000000; stroke-width: 0.8"/>
      </g>
     </g>
     <g id="text_15">
      <text style="font-size: 10px; font-family: 'DejaVu Sans', 'Bitstream Vera Sans', 'Computer Modern Sans Serif', 'Lucida Grande', 'Verdana', 'Geneva', 'Lucid', 'Arial', 'Helvetica', 'Avant Garde', sans-serif; text-anchor: end" x="182.02" y="36.474219" transform="rotate(-0 182.02 36.474219)">0.8</text>
     </g>
    </g>
    <g id="text_16">
     <text style="font-size: 10px; font-family: 'DejaVu Sans', 'Bitstream Vera Sans', 'Computer Modern Sans Serif', 'Lucida Grande', 'Verdana', 'Geneva', 'Lucid', 'Arial', 'Helvetica', 'Avant Garde', sans-serif; text-anchor: middle" x="160.037188" y="50.06" transform="rotate(-90 160.037188 50.06)">accuracy</text>
    </g>
   </g>
   <g id="line2d_17">
    <path d="M 189.02 65.562611 
L 189.573728 66.695986 
L 190.127456 66.922662 
L 190.681183 66.065238 
L 191.234911 66.55801 
L 191.788639 67.632253 
L 192.342367 67.366156 
L 192.896095 67.513988 
L 193.449822 68.903605 
L 194.00355 67.523844 
L 194.557278 67.425289 
L 195.664734 68.036327 
L 196.218462 68.647364 
L 196.772189 68.499532 
L 197.325917 67.55341 
L 197.879645 67.829362 
L 198.433373 67.563265 
L 198.987101 68.982449 
L 199.540828 67.66182 
L 200.094556 67.720952 
L 200.648284 68.263002 
L 201.202012 68.519243 
L 201.75574 68.174303 
L 202.309467 69.790595 
L 202.863195 67.385867 
L 203.416923 68.844473 
L 203.970651 67.780085 
L 204.524379 66.459456 
L 205.078107 67.22818 
L 205.631834 67.385867 
L 206.185562 66.88324 
L 206.73929 66.084949 
L 207.293018 67.307024 
L 207.846746 67.247891 
L 208.400473 66.962083 
L 208.954201 67.987049 
L 209.507929 67.109915 
L 210.061657 68.105315 
L 210.615385 68.322134 
L 211.169112 67.080349 
L 211.72284 66.567866 
L 212.276568 67.267602 
L 212.830296 66.282058 
L 213.384024 64.468656 
L 213.937751 65.473912 
L 214.491479 66.222925 
L 215.045207 65.030417 
L 215.598935 65.67102 
L 216.152663 66.055383 
L 216.706391 66.084949 
L 217.260118 65.808997 
L 217.813846 66.764974 
L 218.367574 66.291913 
L 218.921302 66.094804 
L 219.47503 66.055383 
L 220.028757 66.814252 
L 220.582485 66.971939 
L 221.136213 68.105315 
L 221.689941 67.208469 
L 222.243669 67.050782 
L 223.351124 67.415434 
L 223.904852 67.622398 
L 224.45858 67.139481 
L 225.012308 65.868129 
L 225.566036 66.853673 
L 226.119763 66.094804 
L 226.673491 67.267602 
L 227.227219 67.474566 
L 227.780947 67.139481 
L 228.334675 67.198614 
L 228.888402 67.89835 
L 229.44213 67.809651 
L 229.995858 68.184158 
L 230.549586 68.144736 
L 231.103314 67.563265 
L 231.657041 68.213724 
L 232.210769 67.523844 
L 232.764497 68.263002 
L 233.318225 67.533699 
L 233.871953 67.464711 
L 234.42568 67.169048 
L 234.979408 67.10006 
L 235.533136 67.425289 
L 236.086864 66.489022 
L 236.640592 68.233435 
L 237.19432 66.784685 
L 237.748047 67.612543 
L 238.301775 66.656565 
L 238.855503 67.287313 
L 239.409231 65.77943 
L 239.962959 65.838563 
L 240.516686 65.237381 
L 241.070414 64.123716 
L 241.624142 64.399668 
L 243.285325 60.467347 
L 243.839053 58.496259 
L 244.392781 58.703223 
L 244.946509 56.673002 
L 245.500237 55.874711 
L 246.053964 54.179575 
L 246.607692 53.430561 
L 247.16142 52.888512 
L 247.715148 52.514005 
L 248.268876 51.084966 
L 249.376331 50.178265 
L 249.930059 49.71506 
L 250.483787 48.522551 
L 251.037515 49.340553 
L 252.14497 47.665128 
L 252.698698 47.684838 
L 253.252426 47.527151 
L 253.806154 48.571828 
L 254.359882 47.418741 
L 254.913609 47.734116 
L 255.467337 47.192066 
L 256.021065 47.113223 
L 256.574793 47.921369 
L 257.128521 48.443707 
L 257.682249 46.925969 
L 258.235976 46.27551 
L 258.789704 46.334643 
L 259.343432 44.787338 
L 259.89716 44.04818 
L 261.004615 41.229524 
L 261.558343 40.401667 
L 262.112071 38.676964 
L 263.219527 38.056071 
L 264.326982 36.252526 
L 265.434438 35.533078 
L 266.541893 36.222959 
L 267.095621 35.720332 
L 267.649349 35.740043 
L 268.203077 36.35108 
L 269.310533 35.552789 
L 269.86426 34.922041 
L 270.417988 35.069872 
L 270.971716 35.395102 
L 271.525444 34.261726 
L 272.079172 34.912185 
L 272.632899 34.399702 
L 273.740355 33.985774 
L 274.294083 33.374736 
L 274.847811 33.729532 
L 275.401538 33.286037 
L 275.955266 33.621122 
L 276.508994 33.433869 
L 277.062722 32.645434 
L 278.170178 32.56659 
L 278.723905 31.807721 
L 279.831361 31.886565 
L 280.385089 32.359626 
L 280.938817 32.45818 
L 282.046272 33.56199 
L 282.6 32.812976 
L 282.6 32.812976 
" clip-path="url(#peba3658aa1)" style="fill: none; stroke: #808080; stroke-width: 1.5; stroke-linecap: square"/>
   </g>
   <g id="line2d_18">
    <path d="M 189.02 67.730808 
L 189.573728 65.700587 
L 190.127456 66.34119 
L 190.681183 66.794541 
L 191.234911 65.917406 
L 191.788639 66.735408 
L 192.342367 66.015961 
L 192.896095 66.429889 
L 193.449822 65.897696 
L 194.00355 65.927262 
L 194.557278 66.824107 
L 195.111006 66.912806 
L 195.664734 65.99625 
L 196.218462 67.090204 
L 196.772189 66.617143 
L 197.325917 66.508733 
L 197.879645 65.789286 
L 198.433373 65.937117 
L 198.987101 67.316879 
L 199.540828 66.784685 
L 200.094556 65.65131 
L 200.648284 66.272202 
L 201.202012 66.548155 
L 201.75574 66.479167 
L 202.309467 66.952228 
L 202.863195 65.266947 
L 203.416923 67.287313 
L 203.970651 66.331335 
L 204.524379 65.917406 
L 205.078107 66.863529 
L 205.631834 66.695986 
L 206.185562 67.405578 
L 206.73929 66.745264 
L 207.293018 66.459456 
L 207.846746 66.843818 
L 208.400473 66.479167 
L 208.954201 66.784685 
L 209.507929 67.582976 
L 210.061657 66.469311 
L 210.615385 66.814252 
L 211.169112 67.78994 
L 211.72284 66.538299 
L 212.276568 67.129626 
L 212.830296 67.257747 
L 213.384024 67.159192 
L 213.937751 67.33659 
L 214.491479 68.391122 
L 215.045207 67.356301 
L 215.598935 67.563265 
L 216.152663 67.996905 
L 216.706391 69.918716 
L 217.260118 69.386522 
L 217.813846 69.041582 
L 218.367574 67.78994 
L 218.921302 67.967338 
L 220.028757 68.775485 
L 220.582485 68.312279 
L 221.689941 67.740663 
L 222.243669 67.77023 
L 223.351124 66.804396 
L 224.45858 67.22818 
L 225.012308 67.681531 
L 225.566036 67.66182 
L 226.119763 68.125026 
L 226.673491 67.494277 
L 227.227219 67.987049 
L 227.780947 66.045527 
L 228.334675 65.168393 
L 228.888402 64.971284 
L 229.44213 65.32608 
L 229.995858 65.454201 
L 230.549586 64.931862 
L 231.657041 67.001505 
L 232.210769 67.159192 
L 232.764497 66.66642 
L 233.318225 68.391122 
L 233.871953 69.149991 
L 234.42568 70.628308 
L 234.979408 69.051437 
L 236.086864 68.864184 
L 236.640592 68.420689 
L 237.19432 68.272857 
L 237.748047 67.947628 
L 238.301775 66.252491 
L 238.855503 65.799141 
L 239.409231 66.695986 
L 239.962959 64.636199 
L 240.516686 64.478512 
L 241.070414 62.566556 
L 241.624142 62.468002 
L 242.731598 59.304405 
L 243.285325 57.875366 
L 243.839053 57.845799 
L 244.392781 56.998231 
L 244.946509 55.559337 
L 245.500237 55.253818 
L 246.053964 54.002177 
L 246.607692 54.248563 
L 247.715148 51.094821 
L 248.822604 50.128988 
L 249.376331 48.591539 
L 249.930059 48.305731 
L 250.483787 48.236743 
L 251.037515 46.689439 
L 251.591243 45.664473 
L 252.14497 45.634906 
L 252.698698 45.802449 
L 253.252426 44.462109 
L 253.806154 43.989048 
L 254.359882 44.205867 
L 254.913609 43.102058 
L 255.467337 42.914804 
L 256.021065 42.983793 
L 256.574793 42.116514 
L 257.682249 42.008104 
L 258.235976 41.466054 
L 258.789704 41.485765 
L 259.343432 41.239379 
L 259.89716 40.13557 
L 260.450888 40.766318 
L 261.004615 39.849762 
L 261.558343 40.362245 
L 262.112071 40.056726 
L 262.665799 39.899039 
L 263.219527 38.913495 
L 263.773254 38.410867 
L 264.326982 38.92335 
L 264.88071 38.263036 
L 265.434438 38.775519 
L 265.988166 37.809685 
L 266.541893 38.341879 
L 267.095621 37.720986 
L 267.649349 38.499566 
L 268.203077 38.272891 
L 268.756805 37.839252 
L 269.310533 37.809685 
L 269.86426 37.36619 
L 270.417988 37.356335 
L 270.971716 38.105349 
L 271.525444 38.065927 
L 272.079172 37.868818 
L 272.632899 37.514022 
L 273.186627 38.558699 
L 273.740355 38.095493 
L 274.294083 38.489711 
L 274.847811 38.381301 
L 275.401538 39.189447 
L 275.955266 39.563954 
L 276.508994 40.638197 
L 277.062722 41.239379 
L 277.61645 42.372755 
L 278.170178 42.737406 
L 279.831361 45.191412 
L 280.385089 46.324787 
L 280.938817 47.142789 
L 281.492544 48.177611 
L 282.046272 48.778793 
L 282.6 49.646071 
L 282.6 49.646071 
" clip-path="url(#peba3658aa1)" style="fill: none; stroke: #000000; stroke-width: 1.5; stroke-linecap: square"/>
   </g>
   <g id="line2d_19">
    <path d="M 200.029412 73.24 
L 200.029412 26.88 
" clip-path="url(#peba3658aa1)" style="fill: none; stroke-dasharray: 2.96,1.28; stroke-dashoffset: 0; stroke: #000000; stroke-width: 0.8"/>
   </g>
   <g id="line2d_20">
    <path d="M 227.552941 73.24 
L 227.552941 26.88 
" clip-path="url(#peba3658aa1)" style="fill: none; stroke-dasharray: 2.96,1.28; stroke-dashoffset: 0; stroke: #000000; stroke-width: 0.8"/>
   </g>
   <g id="line2d_21">
    <path d="M 255.076471 73.24 
L 255.076471 26.88 
" clip-path="url(#peba3658aa1)" style="fill: none; stroke-dasharray: 2.96,1.28; stroke-dashoffset: 0; stroke: #000000; stroke-width: 0.8"/>
   </g>
   <g id="line2d_22">
    <path d="M 189.02 67.445 
L 282.6 67.445 
" clip-path="url(#peba3658aa1)" style="fill: none; stroke-dasharray: 2.96,1.28; stroke-dashoffset: 0; stroke: #000000; stroke-width: 0.8"/>
   </g>
   <g id="patch_8">
    <path d="M 189.02 73.24 
L 189.02 26.88 
" style="fill: none; stroke: #000000; stroke-width: 0.8; stroke-linejoin: miter; stroke-linecap: square"/>
   </g>
   <g id="patch_9">
    <path d="M 189.02 73.24 
L 282.6 73.24 
" style="fill: none; stroke: #000000; stroke-width: 0.8; stroke-linejoin: miter; stroke-linecap: square"/>
   </g>
   <g id="text_17">
    <text style="font-size: 10px; font-family: 'DejaVu Sans', 'Bitstream Vera Sans', 'Computer Modern Sans Serif', 'Lucida Grande', 'Verdana', 'Geneva', 'Lucid', 'Arial', 'Helvetica', 'Avant Garde', sans-serif; text-anchor: middle" x="241.314706" y="34.275375" transform="rotate(-0 241.314706 34.275375)">ns</text>
   </g>
   <g id="text_18">
    <text style="font-size: 12px; font-family: 'DejaVu Sans', 'Bitstream Vera Sans', 'Computer Modern Sans Serif', 'Lucida Grande', 'Verdana', 'Geneva', 'Lucid', 'Arial', 'Helvetica', 'Avant Garde', sans-serif; text-anchor: middle" x="235.81" y="20.88" transform="rotate(-0 235.81 20.88)">xor decoding</text>
   </g>
  </g>
  <g id="axes_3">
   <g id="patch_10">
    <path d="M 330.32 73.24 
L 423.9 73.24 
L 423.9 26.88 
L 330.32 26.88 
z
" style="fill: #ffffff"/>
   </g>
   <g id="patch_11">
    <path d="M 368.852941 125.395 
L 396.376471 125.395 
L 396.376471 9.495 
L 368.852941 9.495 
z
" clip-path="url(#pf5be3add0c)" style="fill: #ffdab9"/>
   </g>
   <g id="matplotlib.axis_5">
    <g id="xtick_7">
     <g id="line2d_23">
      <g>
       <use xlink:href="#m242f865131" x="341.329412" y="73.24" style="stroke: #000000; stroke-width: 0.8"/>
      </g>
     </g>
     <g id="text_19">
      <text style="font-size: 10px; font-family: 'DejaVu Sans', 'Bitstream Vera Sans', 'Computer Modern Sans Serif', 'Lucida Grande', 'Verdana', 'Geneva', 'Lucid', 'Arial', 'Helvetica', 'Avant Garde', sans-serif; text-anchor: middle" x="341.329412" y="87.838437" transform="rotate(-0 341.329412 87.838437)">0.0</text>
     </g>
    </g>
    <g id="xtick_8">
     <g id="line2d_24">
      <g>
       <use xlink:href="#m242f865131" x="368.852941" y="73.24" style="stroke: #000000; stroke-width: 0.8"/>
      </g>
     </g>
     <g id="text_20">
      <text style="font-size: 10px; font-family: 'DejaVu Sans', 'Bitstream Vera Sans', 'Computer Modern Sans Serif', 'Lucida Grande', 'Verdana', 'Geneva', 'Lucid', 'Arial', 'Helvetica', 'Avant Garde', sans-serif; text-anchor: middle" x="368.852941" y="87.838437" transform="rotate(-0 368.852941 87.838437)">0.5</text>
     </g>
    </g>
    <g id="xtick_9">
     <g id="line2d_25">
      <g>
       <use xlink:href="#m242f865131" x="396.376471" y="73.24" style="stroke: #000000; stroke-width: 0.8"/>
      </g>
     </g>
     <g id="text_21">
      <text style="font-size: 10px; font-family: 'DejaVu Sans', 'Bitstream Vera Sans', 'Computer Modern Sans Serif', 'Lucida Grande', 'Verdana', 'Geneva', 'Lucid', 'Arial', 'Helvetica', 'Avant Garde', sans-serif; text-anchor: middle" x="396.376471" y="87.838437" transform="rotate(-0 396.376471 87.838437)">1.0</text>
     </g>
    </g>
    <g id="text_22">
     <text style="font-size: 10px; font-family: 'DejaVu Sans', 'Bitstream Vera Sans', 'Computer Modern Sans Serif', 'Lucida Grande', 'Verdana', 'Geneva', 'Lucid', 'Arial', 'Helvetica', 'Avant Garde', sans-serif; text-anchor: middle" x="377.11" y="101.516563" transform="rotate(-0 377.11 101.516563)">time (s)</text>
    </g>
   </g>
   <g id="matplotlib.axis_6">
    <g id="ytick_5">
     <g id="line2d_26">
      <g>
       <use xlink:href="#md433f8797f" x="330.32" y="55.855" style="stroke: #000000; stroke-width: 0.8"/>
      </g>
     </g>
     <g id="text_23">
      <text style="font-size: 10px; font-family: 'DejaVu Sans', 'Bitstream Vera Sans', 'Computer Modern Sans Serif', 'Lucida Grande', 'Verdana', 'Geneva', 'Lucid', 'Arial', 'Helvetica', 'Avant Garde', sans-serif; text-anchor: end" x="323.32" y="59.654219" transform="rotate(-0 323.32 59.654219)">0.6</text>
     </g>
    </g>
    <g id="ytick_6">
     <g id="line2d_27">
      <g>
       <use xlink:href="#md433f8797f" x="330.32" y="32.675" style="stroke: #000000; stroke-width: 0.8"/>
      </g>
     </g>
     <g id="text_24">
      <text style="font-size: 10px; font-family: 'DejaVu Sans', 'Bitstream Vera Sans', 'Computer Modern Sans Serif', 'Lucida Grande', 'Verdana', 'Geneva', 'Lucid', 'Arial', 'Helvetica', 'Avant Garde', sans-serif; text-anchor: end" x="323.32" y="36.474219" transform="rotate(-0 323.32 36.474219)">0.8</text>
     </g>
    </g>
    <g id="text_25">
     <text style="font-size: 10px; font-family: 'DejaVu Sans', 'Bitstream Vera Sans', 'Computer Modern Sans Serif', 'Lucida Grande', 'Verdana', 'Geneva', 'Lucid', 'Arial', 'Helvetica', 'Avant Garde', sans-serif; text-anchor: middle" x="301.337187" y="50.06" transform="rotate(-90 301.337187 50.06)">accuracy</text>
    </g>
   </g>
   <g id="line2d_28">
    <path d="M 330.32 67.454855 
L 330.873728 68.095459 
L 331.427456 67.080349 
L 331.981183 67.878639 
L 332.534911 67.080349 
L 333.088639 66.607287 
L 334.749822 68.78534 
L 335.30355 67.33659 
L 335.857278 68.696641 
L 336.411006 68.706497 
L 336.964734 68.243291 
L 337.518462 68.598087 
L 338.072189 70.01727 
L 339.179645 68.883895 
L 339.733373 69.908861 
L 340.287101 70.283367 
L 340.840828 70.441054 
L 341.394556 70.086259 
L 341.948284 70.01727 
L 342.502012 71.239345 
L 343.05574 70.480476 
L 343.609467 71.475876 
L 344.163195 70.470621 
L 344.716923 70.046837 
L 345.270651 68.824762 
L 345.824379 68.509388 
L 346.378107 69.859583 
L 346.931834 68.54881 
L 347.485562 69.012015 
L 348.03929 68.312279 
L 348.593018 68.065893 
L 349.146746 67.967338 
L 349.700473 69.071148 
L 350.254201 69.514643 
L 350.807929 69.465366 
L 351.361657 70.23409 
L 352.469112 69.140136 
L 353.02284 69.642764 
L 353.576568 69.78074 
L 354.130296 70.657874 
L 355.237751 69.544209 
L 355.791479 69.56392 
L 356.345207 68.637509 
L 356.898935 68.410833 
L 358.006391 67.730808 
L 358.560118 68.450255 
L 359.113846 68.54881 
L 359.667574 67.760374 
L 360.221302 67.839218 
L 360.77503 68.253146 
L 361.328757 66.794541 
L 361.882485 67.080349 
L 362.436213 67.10006 
L 362.989941 65.956828 
L 363.543669 66.055383 
L 364.097396 67.267602 
L 365.204852 68.00676 
L 365.75858 67.287313 
L 366.312308 67.356301 
L 366.866036 67.957483 
L 367.419763 67.316879 
L 367.973491 67.11977 
L 368.527219 67.66182 
L 369.080947 66.646709 
L 369.634675 64.212415 
L 370.188402 64.705187 
L 370.74213 62.822798 
L 371.295858 63.630944 
L 372.403314 60.999541 
L 372.957041 60.053418 
L 373.510769 58.772211 
L 374.064497 57.796522 
L 374.618225 55.933844 
L 375.171953 55.155264 
L 375.72568 53.28273 
L 376.279408 52.691403 
L 376.833136 51.213087 
L 377.386864 51.272219 
L 377.940592 50.602049 
L 378.49432 50.444362 
L 379.601775 50.661182 
L 380.155503 51.144099 
L 380.709231 53.322151 
L 381.262959 53.06591 
L 381.816686 53.499549 
L 382.370414 55.253818 
L 382.924142 54.445672 
L 383.47787 55.243963 
L 384.031598 54.06131 
L 384.585325 54.258418 
L 385.139053 53.125043 
L 385.692781 51.607304 
L 386.246509 51.755136 
L 386.800237 51.213087 
L 387.353964 50.197976 
L 387.907692 50.06 
L 389.015148 50.16841 
L 389.568876 49.60665 
L 390.122604 49.577083 
L 390.676331 50.454218 
L 391.230059 50.493639 
L 391.783787 49.271565 
L 392.337515 49.84318 
L 392.891243 50.83858 
L 393.44497 51.114532 
L 393.998698 50.878002 
L 394.552426 51.459473 
L 395.106154 52.39574 
L 395.659882 52.63227 
L 396.213609 51.40034 
L 396.767337 52.61256 
L 397.321065 52.090221 
L 397.874793 51.863546 
L 398.428521 52.267619 
L 398.982249 52.445017 
L 399.535976 52.760391 
L 400.089704 51.952245 
L 400.643432 52.297185 
L 401.19716 52.780102 
L 401.750888 53.479838 
L 402.304615 52.770247 
L 402.858343 53.588248 
L 403.412071 54.179575 
L 403.965799 54.455527 
L 404.519527 54.485094 
L 405.073254 54.347117 
L 405.626982 55.125697 
L 406.18071 55.273529 
L 406.734438 56.74199 
L 407.288166 57.116497 
L 408.395621 58.210451 
L 408.949349 58.42727 
L 409.503077 60.033707 
L 410.056805 60.073129 
L 411.16426 60.999541 
L 411.717988 60.506769 
L 412.271716 60.615179 
L 412.825444 61.255782 
L 413.379172 61.452891 
L 413.932899 61.383903 
L 414.486627 61.452891 
L 415.040355 62.655255 
L 415.594083 62.241327 
L 416.147811 62.53699 
L 416.701538 63.079039 
L 418.362722 65.079694 
L 418.91645 66.301769 
L 419.470178 66.242636 
L 420.023905 66.735408 
L 420.577633 64.754464 
L 421.131361 64.626344 
L 421.685089 66.163793 
L 422.238817 66.351046 
L 422.792544 65.621743 
L 423.346272 65.572466 
L 423.9 65.868129 
L 423.9 65.868129 
" clip-path="url(#pf5be3add0c)" style="fill: none; stroke: #808080; stroke-width: 1.5; stroke-linecap: square"/>
   </g>
   <g id="line2d_29">
    <path d="M 330.32 68.164447 
L 330.873728 69.317534 
L 331.427456 67.849073 
L 331.981183 69.938427 
L 332.534911 69.731463 
L 333.088639 69.396378 
L 334.196095 69.810306 
L 334.749822 69.386522 
L 335.30355 68.56852 
L 335.857278 68.489677 
L 336.411006 67.927917 
L 336.964734 68.056037 
L 337.518462 67.090204 
L 338.072189 67.159192 
L 338.625917 66.922662 
L 339.179645 66.55801 
L 339.733373 67.257747 
L 340.287101 68.696641 
L 340.840828 68.233435 
L 341.394556 67.169048 
L 341.948284 68.844473 
L 342.502012 68.164447 
L 343.05574 68.213724 
L 343.609467 68.775485 
L 344.163195 67.711097 
L 344.716923 67.543554 
L 345.270651 67.622398 
L 345.824379 66.538299 
L 346.931834 66.784685 
L 347.485562 65.966684 
L 348.03929 66.962083 
L 348.593018 67.287313 
L 349.146746 66.498878 
L 349.700473 66.124371 
L 350.254201 66.4496 
L 350.807929 66.518588 
L 351.361657 66.094804 
L 351.915385 67.356301 
L 352.469112 66.725553 
L 353.02284 66.893095 
L 353.576568 67.267602 
L 354.130296 65.88784 
L 354.684024 67.356301 
L 355.237751 68.164447 
L 355.791479 67.188759 
L 356.345207 68.322134 
L 356.898935 68.716352 
L 357.452663 67.602687 
L 358.006391 68.194014 
L 358.560118 67.070493 
L 359.113846 67.297168 
L 359.667574 67.66182 
L 360.221302 66.360901 
L 361.328757 67.878639 
L 361.882485 67.849073 
L 362.436213 67.257747 
L 362.989941 67.11977 
L 363.543669 66.735408 
L 364.097396 66.528444 
L 364.651124 67.809651 
L 365.204852 67.701241 
L 365.75858 68.89375 
L 366.312308 67.809651 
L 366.866036 67.573121 
L 367.419763 68.00676 
L 368.527219 67.494277 
L 369.080947 67.78994 
L 369.634675 67.316879 
L 370.188402 67.425289 
L 370.74213 67.681531 
L 371.295858 67.760374 
L 371.849586 67.513988 
L 372.403314 67.642109 
L 372.957041 68.00676 
L 373.510769 68.174303 
L 374.064497 66.902951 
L 374.618225 68.322134 
L 375.171953 68.391122 
L 375.72568 67.622398 
L 376.279408 67.504133 
L 376.833136 67.050782 
L 377.386864 67.563265 
L 377.940592 66.331335 
L 378.49432 66.351046 
L 379.048047 65.602032 
L 380.155503 62.418724 
L 380.709231 61.561301 
L 381.262959 61.383903 
L 381.816686 59.452236 
L 382.370414 59.590213 
L 383.47787 56.801122 
L 384.031598 56.268929 
L 384.585325 56.19994 
L 385.139053 55.51006 
L 385.692781 55.322806 
L 386.246509 54.485094 
L 387.353964 54.820179 
L 387.907692 56.8504 
L 388.46142 56.544881 
L 389.015148 55.992976 
L 389.568876 55.884566 
L 390.122604 56.604014 
L 390.676331 55.992976 
L 391.230059 55.549481 
L 391.783787 55.795867 
L 392.337515 55.096131 
L 392.891243 54.603359 
L 393.44497 56.002832 
L 393.998698 55.421361 
L 394.552426 55.105986 
L 395.106154 55.519915 
L 395.659882 54.908878 
L 397.321065 56.160519 
L 397.874793 56.111241 
L 398.428521 56.535026 
L 398.982249 55.973265 
L 399.535976 57.185485 
L 400.089704 57.737389 
L 400.643432 57.914787 
L 401.19716 58.486403 
L 401.750888 58.732789 
L 402.304615 60.191395 
L 402.858343 59.816888 
L 403.412071 60.427925 
L 403.965799 60.240672 
L 404.519527 60.191395 
L 405.073254 61.068529 
L 405.626982 58.890476 
L 406.18071 59.826743 
L 406.734438 58.851054 
L 407.288166 59.235417 
L 407.841893 59.028452 
L 408.395621 59.560646 
L 408.949349 59.797177 
L 409.503077 59.117151 
L 410.056805 60.368793 
L 410.610533 59.777466 
L 411.16426 59.915442 
L 411.717988 61.364192 
L 412.271716 60.270238 
L 412.825444 60.87142 
L 413.379172 61.768265 
L 413.932899 61.985085 
L 414.486627 62.024507 
L 415.040355 62.359592 
L 415.594083 61.99494 
L 416.147811 61.768265 
L 416.701538 61.403614 
L 417.255266 62.192049 
L 417.808994 61.590867 
L 418.362722 62.32017 
L 418.91645 61.482457 
L 419.470178 61.43318 
L 420.023905 61.54159 
L 420.577633 60.358937 
L 421.131361 61.472602 
L 422.238817 60.063274 
L 422.792544 60.496913 
L 423.346272 60.625034 
L 423.9 60.30966 
L 423.9 60.30966 
" clip-path="url(#pf5be3add0c)" style="fill: none; stroke: #000000; stroke-width: 1.5; stroke-linecap: square"/>
   </g>
   <g id="line2d_30">
    <path d="M 341.329412 73.24 
L 341.329412 26.88 
" clip-path="url(#pf5be3add0c)" style="fill: none; stroke-dasharray: 2.96,1.28; stroke-dashoffset: 0; stroke: #000000; stroke-width: 0.8"/>
   </g>
   <g id="line2d_31">
    <path d="M 368.852941 73.24 
L 368.852941 26.88 
" clip-path="url(#pf5be3add0c)" style="fill: none; stroke-dasharray: 2.96,1.28; stroke-dashoffset: 0; stroke: #000000; stroke-width: 0.8"/>
   </g>
   <g id="line2d_32">
    <path d="M 396.376471 73.24 
L 396.376471 26.88 
" clip-path="url(#pf5be3add0c)" style="fill: none; stroke-dasharray: 2.96,1.28; stroke-dashoffset: 0; stroke: #000000; stroke-width: 0.8"/>
   </g>
   <g id="line2d_33">
    <path d="M 330.32 67.445 
L 423.9 67.445 
" clip-path="url(#pf5be3add0c)" style="fill: none; stroke-dasharray: 2.96,1.28; stroke-dashoffset: 0; stroke: #000000; stroke-width: 0.8"/>
   </g>
   <g id="patch_12">
    <path d="M 330.32 73.24 
L 330.32 26.88 
" style="fill: none; stroke: #000000; stroke-width: 0.8; stroke-linejoin: miter; stroke-linecap: square"/>
   </g>
   <g id="patch_13">
    <path d="M 330.32 73.24 
L 423.9 73.24 
" style="fill: none; stroke: #000000; stroke-width: 0.8; stroke-linejoin: miter; stroke-linecap: square"/>
   </g>
   <g id="text_26">
    <text style="font-size: 15px; font-family: 'DejaVu Sans', 'Bitstream Vera Sans', 'Computer Modern Sans Serif', 'Lucida Grande', 'Verdana', 'Geneva', 'Lucid', 'Arial', 'Helvetica', 'Avant Garde', sans-serif; text-anchor: middle" x="382.614706" y="37.973063" transform="rotate(-0 382.614706 37.973063)">*</text>
   </g>
   <g id="text_27">
    <text style="font-size: 12px; font-family: 'DejaVu Sans', 'Bitstream Vera Sans', 'Computer Modern Sans Serif', 'Lucida Grande', 'Verdana', 'Geneva', 'Lucid', 'Arial', 'Helvetica', 'Avant Garde', sans-serif; text-anchor: middle" x="377.11" y="20.88" transform="rotate(-0 377.11 20.88)">width decoding</text>
   </g>
  </g>
  <g id="axes_4">
   <g id="patch_14">
    <path d="M 471.62 73.24 
L 565.2 73.24 
L 565.2 26.88 
L 471.62 26.88 
z
" style="fill: #ffffff"/>
   </g>
   <g id="patch_15">
    <path d="M 510.152941 113.805 
L 537.676471 113.805 
L 537.676471 -2.095 
L 510.152941 -2.095 
z
" clip-path="url(#p1a73e27c3b)" style="fill: #ffdab9"/>
   </g>
   <g id="matplotlib.axis_7">
    <g id="xtick_10">
     <g id="line2d_34">
      <g>
       <use xlink:href="#m242f865131" x="482.629412" y="73.24" style="stroke: #000000; stroke-width: 0.8"/>
      </g>
     </g>
     <g id="text_28">
      <text style="font-size: 10px; font-family: 'DejaVu Sans', 'Bitstream Vera Sans', 'Computer Modern Sans Serif', 'Lucida Grande', 'Verdana', 'Geneva', 'Lucid', 'Arial', 'Helvetica', 'Avant Garde', sans-serif; text-anchor: middle" x="482.629412" y="87.838437" transform="rotate(-0 482.629412 87.838437)">0.0</text>
     </g>
    </g>
    <g id="xtick_11">
     <g id="line2d_35">
      <g>
       <use xlink:href="#m242f865131" x="510.152941" y="73.24" style="stroke: #000000; stroke-width: 0.8"/>
      </g>
     </g>
     <g id="text_29">
      <text style="font-size: 10px; font-family: 'DejaVu Sans', 'Bitstream Vera Sans', 'Computer Modern Sans Serif', 'Lucida Grande', 'Verdana', 'Geneva', 'Lucid', 'Arial', 'Helvetica', 'Avant Garde', sans-serif; text-anchor: middle" x="510.152941" y="87.838437" transform="rotate(-0 510.152941 87.838437)">0.5</text>
     </g>
    </g>
    <g id="xtick_12">
     <g id="line2d_36">
      <g>
       <use xlink:href="#m242f865131" x="537.676471" y="73.24" style="stroke: #000000; stroke-width: 0.8"/>
      </g>
     </g>
     <g id="text_30">
      <text style="font-size: 10px; font-family: 'DejaVu Sans', 'Bitstream Vera Sans', 'Computer Modern Sans Serif', 'Lucida Grande', 'Verdana', 'Geneva', 'Lucid', 'Arial', 'Helvetica', 'Avant Garde', sans-serif; text-anchor: middle" x="537.676471" y="87.838437" transform="rotate(-0 537.676471 87.838437)">1.0</text>
     </g>
    </g>
    <g id="text_31">
     <text style="font-size: 10px; font-family: 'DejaVu Sans', 'Bitstream Vera Sans', 'Computer Modern Sans Serif', 'Lucida Grande', 'Verdana', 'Geneva', 'Lucid', 'Arial', 'Helvetica', 'Avant Garde', sans-serif; text-anchor: middle" x="518.41" y="101.516563" transform="rotate(-0 518.41 101.516563)">time (s)</text>
    </g>
   </g>
   <g id="matplotlib.axis_8">
    <g id="ytick_7">
     <g id="line2d_37">
      <g>
       <use xlink:href="#md433f8797f" x="471.62" y="67.445" style="stroke: #000000; stroke-width: 0.8"/>
      </g>
     </g>
     <g id="text_32">
      <text style="font-size: 10px; font-family: 'DejaVu Sans', 'Bitstream Vera Sans', 'Computer Modern Sans Serif', 'Lucida Grande', 'Verdana', 'Geneva', 'Lucid', 'Arial', 'Helvetica', 'Avant Garde', sans-serif; text-anchor: end" x="464.62" y="71.244219" transform="rotate(-0 464.62 71.244219)">0.4</text>
     </g>
    </g>
    <g id="ytick_8">
     <g id="line2d_38">
      <g>
       <use xlink:href="#md433f8797f" x="471.62" y="44.265" style="stroke: #000000; stroke-width: 0.8"/>
      </g>
     </g>
     <g id="text_33">
      <text style="font-size: 10px; font-family: 'DejaVu Sans', 'Bitstream Vera Sans', 'Computer Modern Sans Serif', 'Lucida Grande', 'Verdana', 'Geneva', 'Lucid', 'Arial', 'Helvetica', 'Avant Garde', sans-serif; text-anchor: end" x="464.62" y="48.064219" transform="rotate(-0 464.62 48.064219)">0.6</text>
     </g>
    </g>
    <g id="text_34">
     <text style="font-size: 10px; font-family: 'DejaVu Sans', 'Bitstream Vera Sans', 'Computer Modern Sans Serif', 'Lucida Grande', 'Verdana', 'Geneva', 'Lucid', 'Arial', 'Helvetica', 'Avant Garde', sans-serif; text-anchor: middle" x="442.637187" y="50.06" transform="rotate(-90 442.637187 50.06)">accuracy</text>
    </g>
   </g>
   <g id="line2d_39">
    <path d="M 471.62 56.249218 
L 472.727456 55.904277 
L 473.281183 55.165119 
L 473.834911 55.214396 
L 474.388639 55.411505 
L 474.942367 56.446327 
L 475.496095 56.150663 
L 476.60355 56.74199 
L 477.157278 58.614524 
L 477.711006 58.762355 
L 478.264734 59.304405 
L 478.818462 59.304405 
L 479.372189 58.713078 
L 479.925917 59.008741 
L 480.479645 59.058019 
L 481.033373 59.353682 
L 481.587101 60.585612 
L 482.140828 60.437781 
L 482.694556 60.930553 
L 483.248284 61.817543 
L 483.802012 61.029107 
L 484.35574 61.029107 
L 484.909467 59.255128 
L 485.463195 59.107296 
L 486.016923 57.924643 
L 487.124379 57.62898 
L 488.231834 57.530425 
L 488.785562 56.052109 
L 489.893018 55.263673 
L 490.446746 56.446327 
L 491.000473 56.446327 
L 492.107929 57.727534 
L 492.661657 57.924643 
L 493.215385 59.008741 
L 493.769112 58.565247 
L 494.32284 57.776811 
L 494.876568 57.62898 
L 495.430296 57.875366 
L 495.984024 57.530425 
L 496.537751 58.318861 
L 497.091479 58.614524 
L 497.645207 57.875366 
L 498.198935 56.939099 
L 498.752663 56.74199 
L 499.306391 56.298495 
L 499.860118 55.312951 
L 500.413846 54.96801 
L 500.967574 54.376684 
L 501.521302 54.62307 
L 502.07503 53.73608 
L 502.628757 53.538971 
L 503.182485 53.982466 
L 503.736213 53.046199 
L 504.289941 54.08102 
L 504.843669 53.933189 
L 505.397396 53.982466 
L 505.951124 55.312951 
L 506.504852 55.312951 
L 507.05858 56.052109 
L 507.612308 57.234762 
L 508.166036 56.594158 
L 508.719763 57.136207 
L 509.273491 55.904277 
L 509.827219 55.51006 
L 510.380947 54.869456 
L 510.934675 53.637526 
L 511.488402 52.750536 
L 512.04213 51.518605 
L 512.595858 51.222942 
L 513.703314 49.153299 
L 514.257041 47.970646 
L 514.810769 46.443053 
L 515.364497 45.506786 
L 515.918225 44.176301 
L 517.02568 41.170391 
L 518.686864 37.770264 
L 519.240592 37.425323 
L 519.79432 37.376046 
L 520.348047 38.213759 
L 520.901775 39.544243 
L 521.455503 40.431233 
L 522.009231 40.529787 
L 522.562959 41.515332 
L 523.670414 42.550153 
L 524.224142 42.747262 
L 524.77787 43.880638 
L 525.331598 43.979192 
L 525.885325 43.092202 
L 526.439053 41.3675 
L 526.992781 40.431233 
L 527.546509 38.805085 
L 528.100237 39.002194 
L 528.653964 38.01665 
L 529.207692 37.573155 
L 530.315148 38.460145 
L 530.868876 38.805085 
L 531.422604 38.657253 
L 531.976331 38.952917 
L 532.530059 38.854362 
L 534.191243 40.086293 
L 534.74497 41.219668 
L 535.298698 41.515332 
L 535.852426 41.663163 
L 536.406154 41.318223 
L 536.959882 41.613886 
L 537.513609 41.121114 
L 538.067337 41.219668 
L 538.621065 41.466054 
L 539.174793 40.677619 
L 539.728521 41.515332 
L 540.282249 42.057381 
L 540.835976 41.71244 
L 541.943432 41.564609 
L 542.49716 41.860272 
L 543.604615 42.106658 
L 544.158343 43.092202 
L 544.712071 43.634252 
L 545.265799 43.979192 
L 545.819527 44.964736 
L 546.373254 45.2604 
L 546.926982 45.802449 
L 548.588166 48.906913 
L 550.249349 51.469328 
L 550.803077 51.863546 
L 551.356805 52.109932 
L 551.910533 52.996922 
L 552.46426 53.637526 
L 553.017988 53.046199 
L 554.679172 53.292585 
L 555.786627 53.686803 
L 556.340355 54.573793 
L 556.894083 54.327406 
L 557.447811 54.425961 
L 559.662722 55.904277 
L 560.21645 55.707168 
L 560.770178 55.066565 
L 561.323905 56.692713 
L 561.877633 57.284039 
L 562.431361 56.791267 
L 563.538817 57.97392 
L 564.092544 57.234762 
L 564.646272 57.284039 
L 565.2 56.643435 
L 565.2 56.643435 
" clip-path="url(#p1a73e27c3b)" style="fill: none; stroke: #808080; stroke-width: 1.5; stroke-linecap: square"/>
   </g>
   <g id="line2d_40">
    <path d="M 471.62 56.298495 
L 472.173728 56.791267 
L 472.727456 56.692713 
L 473.281183 57.136207 
L 473.834911 58.269583 
L 474.388639 57.431871 
L 474.942367 57.678257 
L 475.496095 58.072474 
L 476.60355 57.382594 
L 477.157278 56.249218 
L 477.711006 55.904277 
L 478.264734 54.425961 
L 478.818462 54.228852 
L 479.372189 54.918733 
L 480.479645 54.278129 
L 481.033373 54.820179 
L 481.587101 55.559337 
L 482.140828 55.362228 
L 482.694556 54.770901 
L 483.248284 55.904277 
L 483.802012 56.347772 
L 484.35574 56.594158 
L 485.463195 55.017287 
L 486.016923 54.62307 
L 487.124379 54.425961 
L 487.678107 54.031743 
L 488.231834 54.573793 
L 488.785562 54.130298 
L 489.33929 54.524515 
L 489.893018 55.115842 
L 490.446746 54.524515 
L 491.554201 53.637526 
L 492.661657 54.721624 
L 493.215385 54.425961 
L 493.769112 55.312951 
L 494.32284 55.362228 
L 494.876568 54.918733 
L 495.430296 55.805723 
L 495.984024 55.51006 
L 496.537751 56.249218 
L 497.091479 55.51006 
L 498.198935 55.312951 
L 498.752663 55.559337 
L 499.306391 55.953554 
L 499.860118 56.19994 
L 500.413846 55.608614 
L 500.967574 55.953554 
L 501.521302 56.594158 
L 502.07503 56.74199 
L 503.182485 55.165119 
L 503.736213 55.263673 
L 504.289941 56.446327 
L 504.843669 56.150663 
L 505.397396 55.51006 
L 505.951124 55.214396 
L 506.504852 55.411505 
L 507.05858 54.869456 
L 508.166036 55.411505 
L 508.719763 55.017287 
L 509.273491 54.770901 
L 509.827219 53.686803 
L 510.934675 53.489694 
L 511.488402 53.982466 
L 512.595858 55.460782 
L 513.149586 55.904277 
L 513.703314 56.988376 
L 514.257041 57.08693 
L 514.810769 56.889821 
L 515.364497 56.840544 
L 515.918225 57.579702 
L 516.471953 59.452236 
L 517.02568 60.043563 
L 517.579408 59.107296 
L 518.133136 58.762355 
L 518.686864 58.171029 
L 519.240592 57.08693 
L 519.79432 56.643435 
L 520.348047 56.791267 
L 521.455503 53.834634 
L 522.009231 53.144753 
L 522.562959 52.208486 
L 524.224142 47.72426 
L 524.77787 46.541607 
L 525.331598 46.787993 
L 525.885325 45.556063 
L 526.439053 45.901003 
L 526.992781 45.358954 
L 527.546509 45.506786 
L 528.100237 44.37341 
L 528.653964 43.683529 
L 529.76142 42.895094 
L 530.315148 43.14148 
L 530.868876 43.732806 
L 531.422604 43.732806 
L 531.976331 44.324133 
L 532.530059 44.71835 
L 533.083787 43.584974 
L 533.637515 43.535697 
L 534.191243 44.077747 
L 534.74497 45.112568 
L 535.852426 44.37341 
L 536.406154 44.37341 
L 536.959882 44.866182 
L 538.067337 44.077747 
L 538.621065 44.077747 
L 539.174793 44.71835 
L 539.728521 44.964736 
L 540.835976 46.344498 
L 541.389704 47.477874 
L 541.943432 47.921369 
L 543.050888 49.49824 
L 543.604615 49.793903 
L 544.158343 48.709804 
L 544.712071 48.561973 
L 546.373254 50.483784 
L 546.926982 49.448963 
L 547.48071 50.040289 
L 548.034438 49.153299 
L 548.588166 48.906913 
L 549.141893 49.399685 
L 549.695621 48.808359 
L 550.249349 49.646071 
L 550.803077 49.547517 
L 551.356805 51.222942 
L 551.910533 50.828724 
L 552.46426 51.222942 
L 553.017988 50.73017 
L 553.571716 50.680893 
L 554.125444 50.779447 
L 554.679172 51.124388 
L 555.232899 51.272219 
L 555.786627 50.976556 
L 556.894083 49.646071 
L 557.447811 48.709804 
L 558.001538 48.463418 
L 558.555266 48.808359 
L 559.108994 48.118478 
L 559.662722 47.231488 
L 560.21645 46.935825 
L 560.770178 46.985102 
L 561.323905 47.822815 
L 561.877633 48.069201 
L 562.985089 48.364864 
L 563.538817 48.217032 
L 564.092544 47.674983 
L 564.646272 47.921369 
L 565.2 48.364864 
L 565.2 48.364864 
" clip-path="url(#p1a73e27c3b)" style="fill: none; stroke: #000000; stroke-width: 1.5; stroke-linecap: square"/>
   </g>
   <g id="line2d_41">
    <path d="M 482.629412 73.24 
L 482.629412 26.88 
" clip-path="url(#p1a73e27c3b)" style="fill: none; stroke-dasharray: 2.96,1.28; stroke-dashoffset: 0; stroke: #000000; stroke-width: 0.8"/>
   </g>
   <g id="line2d_42">
    <path d="M 510.152941 73.24 
L 510.152941 26.88 
" clip-path="url(#p1a73e27c3b)" style="fill: none; stroke-dasharray: 2.96,1.28; stroke-dashoffset: 0; stroke: #000000; stroke-width: 0.8"/>
   </g>
   <g id="line2d_43">
    <path d="M 537.676471 73.24 
L 537.676471 26.88 
" clip-path="url(#p1a73e27c3b)" style="fill: none; stroke-dasharray: 2.96,1.28; stroke-dashoffset: 0; stroke: #000000; stroke-width: 0.8"/>
   </g>
   <g id="line2d_44">
    <path d="M 471.62 55.855 
L 565.2 55.855 
" clip-path="url(#p1a73e27c3b)" style="fill: none; stroke-dasharray: 2.96,1.28; stroke-dashoffset: 0; stroke: #000000; stroke-width: 0.8"/>
   </g>
   <g id="patch_16">
    <path d="M 471.62 73.24 
L 471.62 26.88 
" style="fill: none; stroke: #000000; stroke-width: 0.8; stroke-linejoin: miter; stroke-linecap: square"/>
   </g>
   <g id="patch_17">
    <path d="M 471.62 73.24 
L 565.2 73.24 
" style="fill: none; stroke: #000000; stroke-width: 0.8; stroke-linejoin: miter; stroke-linecap: square"/>
   </g>
   <g id="text_35">
    <text style="font-size: 15px; font-family: 'DejaVu Sans', 'Bitstream Vera Sans', 'Computer Modern Sans Serif', 'Lucida Grande', 'Verdana', 'Geneva', 'Lucid', 'Arial', 'Helvetica', 'Avant Garde', sans-serif; text-anchor: middle" x="523.914706" y="37.973063" transform="rotate(-0 523.914706 37.973063)">*</text>
   </g>
   <g id="text_36">
    <text style="font-size: 12px; font-family: 'DejaVu Sans', 'Bitstream Vera Sans', 'Computer Modern Sans Serif', 'Lucida Grande', 'Verdana', 'Geneva', 'Lucid', 'Arial', 'Helvetica', 'Avant Garde', sans-serif; text-anchor: middle" x="518.41" y="20.88" transform="rotate(-0 518.41 20.88)">width cross-set gen.</text>
   </g>
  </g>
 </g>
 <defs>
  <clipPath id="p25c861351c">
   <rect x="47.72" y="26.88" width="93.58" height="46.36"/>
  </clipPath>
  <clipPath id="peba3658aa1">
   <rect x="189.02" y="26.88" width="93.58" height="46.36"/>
  </clipPath>
  <clipPath id="pf5be3add0c">
   <rect x="330.32" y="26.88" width="93.58" height="46.36"/>
  </clipPath>
  <clipPath id="p1a73e27c3b">
   <rect x="471.62" y="26.88" width="93.58" height="46.36"/>
  </clipPath>
 </defs>
</svg>
